<svg aria-hidden="true" class="icon insight-teaser__watermark" width="250" height="220" viewBox="0 0 300 250" xmlns="http://www.w3.org/2000/svg" xmlns:xlink="http://www.w3.org/1999/xlink"><defs><path id="a" d="M.5 0h292v257H.5z"></path></defs><g fill="none" fill-rule="evenodd"><mask id="b" fill="#fff"><use xlink:href="#a"></use></mask><path d="M8.96 110.553c18.586-41.642 51.055-76.352 91.425-97.739a4.024 4.024 0 001.673-5.444A4.035 4.035 0 0096.61 5.7C54.654 27.924 20.912 63.996 1.596 107.276a4.026 4.026 0 002.041 5.315 3.99 3.99 0 001.638.353 4.03 4.03 0 003.685-2.39m-.416 65.958c1.921-21.024 7.32-41.398 16.046-60.556 8.484-18.632 19.911-35.69 33.963-50.703a188.804 188.804 0 0148.236-37.198A187.03 187.03 0 01165.65 8a4.026 4.026 0 003.327-4.621A4.033 4.033 0 00164.35.052a195.06 195.06 0 00-61.39 20.916A196.93 196.93 0 0052.664 59.75c-14.651 15.653-26.563 33.44-35.412 52.868C8.15 132.599 2.52 153.852.517 175.778a4.028 4.028 0 004.017 4.394 4.03 4.03 0 004.01-3.661M22.31 221.54a4.027 4.027 0 003.455-4.528 173.999 173.999 0 01-1.545-23.146c0-45.911 17.895-89.074 50.39-121.538 32.495-32.469 75.696-50.345 121.651-50.345 4.23 0 8.507.153 12.711.458a4.034 4.034 0 004.315-3.722 4.028 4.028 0 00-3.728-4.308c-4.398-.32-8.872-.484-13.298-.484-24.312 0-47.9 4.76-70.106 14.142-21.444 9.065-40.708 22.039-57.247 38.563-16.537 16.524-29.525 35.767-38.593 57.194-9.394 22.188-14.155 45.752-14.155 70.04 0 8.1.544 16.25 1.618 24.222a4.028 4.028 0 004.532 3.452m24.859 29.505a4.028 4.028 0 002.447-5.145c-5.925-16.667-8.93-34.178-8.93-52.034 0-41.517 16.184-80.548 45.568-109.907 29.383-29.359 68.45-45.528 110.007-45.528 14.241 0 28.348 1.922 41.93 5.711a4.027 4.027 0 102.168-7.755c-14.288-3.99-29.126-6.009-44.098-6.009-43.71 0-84.8 17.005-115.709 47.885-30.905 30.88-47.929 71.936-47.929 115.603 0 18.777 3.164 37.195 9.397 54.729a4.033 4.033 0 003.798 2.679c.446 0 .905-.073 1.35-.23m28.61 20.179a4.034 4.034 0 001.367-5.533c-13.081-21.605-19.995-46.442-19.995-71.824 0-37.12 14.472-72.024 40.743-98.276 26.276-26.249 61.21-40.708 98.368-40.708 22.311 0 44.491 5.404 64.146 15.625a4.028 4.028 0 005.434-1.712 4.023 4.023 0 00-1.714-5.43C243.332 52.549 219.862 46.83 196.26 46.83c-39.311 0-76.269 15.295-104.067 43.068-27.795 27.772-43.104 64.696-43.104 103.969 0 26.85 7.316 53.132 21.154 75.992a4.032 4.032 0 005.535 1.365M278.039 97.126a4.023 4.023 0 00-.658-5.655c-23.289-18.443-51.339-28.19-81.12-28.19-8.913 0-17.818.9-26.47 2.679a4.027 4.027 0 101.623 7.89 123.793 123.793 0 0124.846-2.517c27.945 0 54.263 9.146 76.116 26.448a4.015 4.015 0 002.502.871 4.029 4.029 0 003.161-1.526M105.615 282.363a4.031 4.031 0 00.244-5.694c-20.791-22.643-32.241-52.05-32.241-82.803 0-25.685 7.863-50.272 22.75-71.105 14.565-20.39 34.67-35.654 58.136-44.143a4.028 4.028 0 10-2.742-7.572c-25.01 9.045-46.435 25.312-61.956 47.036-15.866 22.208-24.251 48.411-24.251 75.784 0 32.773 12.204 64.116 34.364 88.253a4.029 4.029 0 002.971 1.299 4.03 4.03 0 002.725-1.055m31.2 4.324a4.025 4.025 0 00-1.013-5.603c-28.627-19.848-45.718-52.453-45.718-87.218 0-23.041 7.266-44.957 21.018-63.372a4.022 4.022 0 00-.822-5.633 4.03 4.03 0 00-5.638.819c-14.8 19.815-22.619 43.395-22.619 68.186 0 37.401 18.384 72.482 49.184 93.833a4.031 4.031 0 005.608-1.012m148.846-157.349a4.022 4.022 0 00.698-5.65C264.53 95.752 231.688 79.73 196.26 79.73c-30.923 0-59.883 12.148-81.544 34.201a4.021 4.021 0 00.053 5.697 4.032 4.032 0 005.699-.056C140.6 99.076 167.52 87.787 196.26 87.787c32.93 0 63.453 14.89 83.745 40.854a4.013 4.013 0 003.178 1.551c.87 0 1.742-.28 2.478-.854m-8.62 145.236c21.578-21.562 33.459-50.221 33.459-80.708 0-20.095-5.3-39.857-15.33-57.15a4.035 4.035 0 00-5.51-1.465 4.028 4.028 0 00-1.466 5.505c9.32 16.065 14.246 34.43 14.246 53.11 0 58.493-47.632 106.084-106.18 106.084-15.949 0-31.283-3.448-45.572-10.242a4.029 4.029 0 00-3.466 7.273C162.602 304.293 179.1 308 196.26 308c30.516 0 59.203-11.873 80.781-33.426m-104.808 9.937a4.027 4.027 0 00-2.652-5.044c-17.877-5.557-33.935-16.91-45.212-31.975-11.66-15.577-17.822-34.12-17.822-53.626 0-49.421 40.244-89.63 89.713-89.63 18.332 0 35.957 5.484 50.972 15.86 14.674 10.144 25.897 24.23 32.453 40.734a4.03 4.03 0 007.49-2.971c-7.142-17.987-19.369-33.335-35.359-44.385-16.37-11.311-35.578-17.292-55.556-17.292-53.912 0-97.773 43.82-97.773 97.684 0 21.258 6.72 41.468 19.428 58.448 12.284 16.413 29.784 28.79 49.272 34.846a4.031 4.031 0 005.046-2.65m121.803-90.644a98.02 98.02 0 00-2.475-21.913 4.025 4.025 0 00-4.826-3.024 4.023 4.023 0 00-3.027 4.822 90.168 90.168 0 012.265 20.115c0 49.426-40.244 89.633-89.713 89.633a90.85 90.85 0 01-14.58-1.179 4.032 4.032 0 00-4.628 3.324 4.029 4.029 0 003.33 4.623 98.838 98.838 0 0015.878 1.285c53.913 0 97.776-43.824 97.776-97.686m-85.43 80.303a81.839 81.839 0 007.538-1.519 80.446 80.446 0 007.09-2.13c12.658-4.444 24.144-12.064 33.212-22.036 9.122-10.027 15.63-22.25 18.82-35.347a4.025 4.025 0 00-2.963-4.865 4.031 4.031 0 00-4.87 2.959c-2.873 11.795-8.733 22.804-16.95 31.836-8.174 8.985-18.52 15.85-29.923 19.856a74.335 74.335 0 01-6.382 1.919 74.93 74.93 0 01-6.787 1.365 74.207 74.207 0 01-11.13.838c-40.388 0-73.248-32.826-73.248-73.18 0-40.35 32.86-73.179 73.247-73.179 40.39 0 73.25 32.829 73.25 73.18 0 1.762-.066 3.54-.19 5.288a4.029 4.029 0 003.734 4.303 4.017 4.017 0 004.305-3.73c.14-1.936.211-3.91.211-5.861 0-44.79-36.476-81.233-81.31-81.233-44.833 0-81.307 36.443-81.307 81.233 0 44.79 36.474 81.232 81.307 81.232 4.134 0 8.288-.315 12.346-.93m-9.687-15.576c16.756-.673 32.403-7.708 44.058-19.8 11.69-12.133 18.127-28.088 18.127-44.926 0-23.2-12.542-44.768-32.725-56.288a4.03 4.03 0 00-5.498 1.5 4.025 4.025 0 001.5 5.493c17.676 10.09 28.66 28.978 28.66 49.295 0 14.748-5.636 28.716-15.869 39.338-10.207 10.594-23.906 16.753-38.578 17.345a4.025 4.025 0 00-3.864 4.185 4.025 4.025 0 004.023 3.865c.058 0 .111-.005.166-.007m-16.894-5.505a4.024 4.024 0 00-2.652-5.041c-11.314-3.516-21.479-10.705-28.617-20.241-7.377-9.858-11.276-21.593-11.276-33.94 0-31.277 25.471-56.728 56.78-56.728 4.88 0 9.724.617 14.395 1.838a4.029 4.029 0 102.039-7.794 65.245 65.245 0 00-16.434-2.097c-35.755 0-64.843 29.062-64.843 64.782 0 14.099 4.456 27.505 12.884 38.764 8.149 10.883 19.753 19.09 32.678 23.106a4.029 4.029 0 005.046-2.65m-27.98-45.02a4.03 4.03 0 002.992-4.848 40.24 40.24 0 01-1.091-9.352c0-22.21 18.084-40.278 40.314-40.278a40.21 40.21 0 0127.453 10.78 4.028 4.028 0 105.487-5.897c-8.975-8.343-20.675-12.936-32.94-12.936-26.674 0-48.375 21.681-48.375 48.33a48.366 48.366 0 001.308 11.214 4.033 4.033 0 004.852 2.986m90.593-14.2c0-7.446-1.65-14.582-4.905-21.227a4.032 4.032 0 00-5.394-1.844 4.023 4.023 0 00-1.847 5.384c2.71 5.533 4.086 11.48 4.086 17.688 0 22.207-18.087 40.277-40.318 40.277-13.794 0-26.485-6.932-33.95-18.546a4.029 4.029 0 10-6.783 4.354c8.955 13.928 24.184 22.248 40.733 22.248 26.677 0 48.378-21.684 48.378-48.333m-48.378-23.83c-13.151 0-23.848 10.692-23.848 23.83 0 13.14 10.697 23.826 23.848 23.826 13.15 0 23.849-10.687 23.849-23.826 0-13.138-10.7-23.83-23.849-23.83m0 55.712c-17.592 0-31.911-14.306-31.911-31.882 0-17.58 14.319-31.88 31.911-31.88 17.596 0 31.912 14.3 31.912 31.88 0 17.576-14.316 31.882-31.912 31.882m0-39.26c-4.07 0-7.385 3.308-7.385 7.378 0 4.066 3.315 7.375 7.385 7.375 4.073 0 7.385-3.309 7.385-7.375 0-4.07-3.312-7.379-7.385-7.379m0 22.807c-8.516 0-15.442-6.92-15.442-15.428 0-8.51 6.926-15.429 15.442-15.429 8.517 0 15.443 6.92 15.443 15.429 0 8.508-6.926 15.428-15.443 15.428" fill="#313131" opacity=".049" mask="url(#b)"></path></g></svg>